<svg width="1024" height="1024" viewBox="0 0 1024 1024" fill="none" xmlns="http://www.w3.org/2000/svg">
<rect width="1024" height="1024" rx="180" fill="white"/>
<g clip-path="url(#clip0_719_895)">
<path d="M353.633 316.333L371.369 198.916L658.733 242.321C760.131 257.321 812.333 344.849 795.325 459.533C777.654 574.432 702.07 641.712 600.768 626.093L313.401 582.688L331.137 465.27L607.997 507.088C651.254 513.622 686.822 487.389 693.357 444.131C699.984 400.253 673.706 364.996 630.493 358.152L353.633 316.333Z" fill="#EF4B3F"/>
<path d="M336 361.6C396.089 361.6 444.8 312.889 444.8 252.8C444.8 192.711 396.089 144 336 144C275.911 144 227.2 192.711 227.2 252.8C227.2 312.889 275.911 361.6 336 361.6Z" fill="white"/>
<path d="M463.262 768.627L352.627 732.8L316.8 843.435L427.435 879.262L463.262 768.627Z" fill="#EF4B3F"/>
<path d="M353.038 631.819L251.019 576L195.2 678.019L297.219 733.838L353.038 631.819Z" fill="#EF4B3F"/>
<ellipse cx="336" cy="252.8" rx="76.8" ry="76.8" fill="#EF4B3F"/>
</g>
<defs>
<clipPath id="clip0_719_895">
<rect width="633.6" height="736" fill="white" transform="translate(195.2 144)"/>
</clipPath>
</defs>
</svg>
